Normalized EMG Linear Envelopes
nRows=95
nColumns=4

endheader
time	 med_gas_r	  soleus_r	 tib_ant_r	
5.92137	  0.033005	  0.149815	  0.033833	
5.95464	  0.031341	  0.151872	  0.033981	
5.9879	  0.029752	  0.153363	  0.034183	
6.02117	  0.028317	  0.153675	  0.034458	
6.05444	  0.027192	  0.152780	  0.034787	
6.0877	  0.026490	  0.151263	  0.035142	
6.12097	  0.026177	  0.149929	  0.035499	
6.15423	  0.026063	  0.149260	  0.035849	
6.1875	  0.025895	  0.149167	  0.036206	
6.22077	  0.025503	  0.149221	  0.036622	
6.25403	  0.024879	  0.149070	  0.037170	
6.2873	  0.024156	  0.148648	  0.037899	
6.32056	  0.023500	  0.148096	  0.038766	
6.35383	  0.023007	  0.147566	  0.039618	
6.3871	  0.022649	  0.147128	  0.040249	
6.42036	  0.022309	  0.146814	  0.040495	
6.45363	  0.021853	  0.146685	  0.040310	
6.4869	  0.021225	  0.146859	  0.039768	
6.52016	  0.020490	  0.147460	  0.038992	
6.55343	  0.019821	  0.148563	  0.038079	
6.58669	  0.019410	  0.150182	  0.037082	
6.61996	  0.019374	  0.152255	  0.036041	
6.65323	  0.019699	  0.154633	  0.035023	
6.68649	  0.020245	  0.157094	  0.034127	
6.71976	  0.020824	  0.159422	  0.033445	
6.75302	  0.021285	  0.161458	  0.033024	
6.78629	  0.021590	  0.163003	  0.032852	
6.81956	  0.021816	  0.163672	  0.032873	
6.85282	  0.022101	  0.162960	  0.033009	
6.88609	  0.022534	  0.160630	  0.033190	
6.91935	  0.023083	  0.157087	  0.033376	
6.95262	  0.023589	  0.153337	  0.033570	
6.98589	  0.023865	  0.150493	  0.033809	
7.01915	  0.023834	  0.149218	  0.034123	
7.05242	  0.023606	  0.149455	  0.034508	
7.08569	  0.023406	  0.150555	  0.034934	
7.11895	  0.023409	  0.151624	  0.035379	
7.15222	  0.023605	  0.151930	  0.035849	
7.18548	  0.023815	  0.151235	  0.036359	
7.21875	  0.023842	  0.149895	  0.036891	
7.25202	  0.023644	  0.148663	  0.037375	
7.28528	  0.023369	  0.148273	  0.037722	
7.31855	  0.023238	  0.149063	  0.037861	
7.35181	  0.023351	  0.150876	  0.037755	
7.38508	  0.023595	  0.153268	  0.037397	
7.41835	  0.023731	  0.155840	  0.036801	
7.45161	  0.023588	  0.158441	  0.036000	
7.48488	  0.023239	  0.161048	  0.035053	
7.51815	  0.022981	  0.163472	  0.034041	
7.55141	  0.023155	  0.165187	  0.033054	
7.58468	  0.023911	  0.165529	  0.032183	
7.61794	  0.025098	  0.164133	  0.031512	
7.65121	  0.026359	  0.161207	  0.031109	
7.68448	  0.027359	  0.157421	  0.031015	
7.71774	  0.027977	  0.153563	  0.031236	
7.75101	  0.028316	  0.150309	  0.031739	
7.78427	  0.028541	  0.148172	  0.032454	
7.81754	  0.028695	  0.147479	  0.033269	
7.85081	  0.028652	  0.148271	  0.034053	
7.88407	  0.028265	  0.150242	  0.034681	
7.91734	  0.027556	  0.152850	  0.035083	
7.9506	  0.026754	  0.155537	  0.035268	
7.98387	  0.026152	  0.157885	  0.035303	
8.01714	  0.025913	  0.159601	  0.035262	
8.0504	  0.026022	  0.160427	  0.035167	
8.08367	  0.026382	  0.160101	  0.034996	
8.11694	  0.026939	  0.158465	  0.034748	
8.1502	  0.027685	  0.155676	  0.034502	
8.18347	  0.028592	  0.152366	  0.034416	
8.21673	  0.029585	  0.149543	  0.034627	
8.25	  0.030588	  0.148211	  0.035152	
8.28327	  0.031565	  0.148971	  0.035848	
8.31653	  0.032490	  0.151894	  0.036490	
8.3498	  0.033294	  0.156730	  0.036883	
8.38306	  0.033889	  0.163202	  0.036936	
8.41633	  0.034241	  0.171179	  0.036666	
8.4496	  0.034402	  0.180659	  0.036144	
8.48286	  0.034475	  0.191621	  0.035458	
8.51613	  0.034550	  0.203729	  0.034726	
8.5494	  0.034695	  0.215902	  0.034111	
8.58266	  0.034954	  0.226100	  0.033809	
8.61593	  0.035330	  0.231788	  0.034023	
8.64919	  0.035769	  0.231150	  0.034926	
8.68246	  0.036171	  0.224225	  0.036653	
8.71573	  0.036442	  0.212978	  0.039254	
8.74899	  0.036523	  0.200147	  0.042593	
8.78226	  0.036386	  0.187883	  0.046228	
8.81552	  0.036031	  0.177224	  0.049465	
8.84879	  0.035495	  0.168494	  0.051640	
8.88206	  0.034864	  0.161877	  0.052511	
8.91532	  0.034243	  0.157565	  0.052426	
8.94859	  0.033719	  0.155529	  0.052084	
8.98185	  0.033348	  0.155382	  0.052054	
9.01512	  0.033175	  0.156549	  0.052439	
9.04839	  0.033240	  0.158588	  0.052932	
